<?xml version="1.0" encoding="UTF-8"?>
<svg width="48px" height="48px" viewBox="0 0 48 48" version="1.1" xmlns="http://www.w3.org/2000/svg" xmlns:xlink="http://www.w3.org/1999/xlink">
    <title>编组 65</title>
    <g id="页面-1" stroke="none" stroke-width="1" fill="none" fill-rule="evenodd">
        <g id="画板" transform="translate(-257.000000, -235.000000)">
            <g id="编组-65" transform="translate(257.000000, 235.000000)">
                <rect id="矩形备份-74" stroke="#979797" fill="#D8D8D8" opacity="0" x="0.5" y="0.5" width="47" height="47"></rect>
                <g id="编组-6" transform="translate(2.000000, 2.000000)">
                    <rect id="矩形" fill="#D8D8D8" opacity="0" x="2" y="2" width="40" height="40"></rect>
                    <g id="编组" transform="translate(0.740741, 0.740741)" fill="#FFFFFF" fill-rule="nonzero">
                        <path d="M11.2063492,27.3306878 L4.16931217,27.3306878 C1.97040067,27.3306878 0.187830688,29.1132578 0.187830688,31.3121693 L0.187830688,38.3492063 C0.187830688,40.5481179 1.97040067,42.3306878 4.16931217,42.3306878 L11.2063492,42.3306878 C13.4052607,42.3306878 15.1878307,40.5481179 15.1878307,38.3492063 L15.1878307,31.3121693 C15.1878307,29.1132578 13.4052607,27.3306878 11.2063492,27.3306878 Z M10.187,32.33 L10.187,37.33 L5.187,37.33 L5.187,32.33 L10.187,32.33 Z" id="矩形"></path>
                        <path d="M38.3492063,27.3306878 L31.3121693,27.3306878 C29.1132578,27.3306878 27.3306878,29.1132578 27.3306878,31.3121693 L27.3306878,38.3492063 C27.3306878,40.5481179 29.1132578,42.3306878 31.3121693,42.3306878 L38.3492063,42.3306878 C40.5481179,42.3306878 42.3306878,40.5481179 42.3306878,38.3492063 L42.3306878,31.3121693 C42.3306878,29.1132578 40.5481179,27.3306878 38.3492063,27.3306878 Z M37.33,32.33 L37.33,37.33 L32.33,37.33 L32.33,32.33 L37.33,32.33 Z" id="矩形"></path>
                        <path d="M25.4920635,0.187830688 L17.026455,0.187830688 C14.8275435,0.187830688 13.0449735,1.97040067 13.0449735,4.16931217 L13.0449735,12.6349206 C13.0449735,14.8338321 14.8275435,16.6164021 17.026455,16.6164021 L25.4920635,16.6164021 C27.690975,16.6164021 29.473545,14.8338321 29.473545,12.6349206 L29.473545,4.16931217 C29.473545,1.97040067 27.690975,0.187830688 25.4920635,0.187830688 Z M24.473,5.187 L24.473,11.616 L18.044,11.616 L18.044,5.187 L24.473,5.187 Z" id="矩形"></path>
                        <path d="M29.8306878,33.0449735 C31.2113997,33.0449735 32.3306878,34.1642617 32.3306878,35.5449735 C32.3306878,36.8704569 31.2991519,37.9550122 29.9950635,38.0396559 L29.8306878,38.0449735 L12.6878307,38.0449735 C11.3071188,38.0449735 10.1878307,36.9256854 10.1878307,35.5449735 C10.1878307,34.2194901 11.2193666,33.1349349 12.523455,33.0502912 L12.6878307,33.0449735 L29.8306878,33.0449735 Z" id="路径"></path>
                        <path d="M13.5253816,12.4836975 C14.0957286,11.2262916 15.5774151,10.6693203 16.834821,11.2396673 C18.039835,11.7862499 18.6015679,13.1698091 18.144304,14.390845 L18.0788512,14.5491067 L10.6788512,30.8633924 C10.1085042,32.1207983 8.62681773,32.6777696 7.36941183,32.1074226 C6.16439785,31.5608401 5.60266494,30.1772808 6.05992882,28.956245 L6.12538162,28.7979833 L13.5253816,12.4836975 Z" id="路径"></path>
                        <path d="M25.6836975,11.2396673 C26.8887115,10.6930848 28.2997054,11.1818345 28.9171791,12.3302008 L28.9931369,12.4836975 L36.3931369,28.7979833 C36.9634839,30.0553892 36.4065126,31.5370756 35.1491067,32.1074226 C33.9440927,32.6540051 32.5330988,32.1652554 31.9156251,31.0168892 L31.8396673,30.8633924 L24.4396673,14.5491067 C23.8693203,13.2917008 24.4262916,11.8100143 25.6836975,11.2396673 Z" id="路径"></path>
                    </g>
                </g>
            </g>
        </g>
    </g>
</svg>