<?xml version="1.0" encoding="UTF-8"?>
<svg width="48px" height="48px" viewBox="0 0 48 48" version="1.1" xmlns="http://www.w3.org/2000/svg" xmlns:xlink="http://www.w3.org/1999/xlink">
    <title>编组 65</title>
    <g id="页面-1" stroke="none" stroke-width="1" fill="none" fill-rule="evenodd">
        <g id="编组-65">
            <rect id="矩形备份-74" stroke="#979797" fill="#D8D8D8" opacity="0" x="0.5" y="0.5" width="47" height="47"></rect>
            <g id="编组-6" transform="translate(4.000000, 4.000000)">
                <rect id="矩形" fill="#D8D8D8" opacity="0" x="0" y="0" width="40" height="40"></rect>
                <g id="编组" transform="translate(0.740741, 0.740741)" fill="#306AF2" fill-rule="nonzero">
                    <path d="M9.20634921,25.3306878 L2.16931217,25.3306878 C-0.0295993346,25.3306878 -1.81216931,27.1132578 -1.81216931,29.3121693 L-1.81216931,36.3492063 C-1.81216931,38.5481179 -0.0295993346,40.3306878 2.16931217,40.3306878 L9.20634921,40.3306878 C11.4052607,40.3306878 13.1878307,38.5481179 13.1878307,36.3492063 L13.1878307,29.3121693 C13.1878307,27.1132578 11.4052607,25.3306878 9.20634921,25.3306878 Z M8.187,30.33 L8.187,35.33 L3.187,35.33 L3.187,30.33 L8.187,30.33 Z" id="矩形"></path>
                    <path d="M36.3492063,25.3306878 L29.3121693,25.3306878 C27.1132578,25.3306878 25.3306878,27.1132578 25.3306878,29.3121693 L25.3306878,36.3492063 C25.3306878,38.5481179 27.1132578,40.3306878 29.3121693,40.3306878 L36.3492063,40.3306878 C38.5481179,40.3306878 40.3306878,38.5481179 40.3306878,36.3492063 L40.3306878,29.3121693 C40.3306878,27.1132578 38.5481179,25.3306878 36.3492063,25.3306878 Z M35.33,30.33 L35.33,35.33 L30.33,35.33 L30.33,30.33 L35.33,30.33 Z" id="矩形"></path>
                    <path d="M23.4920635,-1.81216931 L15.026455,-1.81216931 C12.8275435,-1.81216931 11.0449735,-0.0295993346 11.0449735,2.16931217 L11.0449735,10.6349206 C11.0449735,12.8338321 12.8275435,14.6164021 15.026455,14.6164021 L23.4920635,14.6164021 C25.690975,14.6164021 27.473545,12.8338321 27.473545,10.6349206 L27.473545,2.16931217 C27.473545,-0.0295993346 25.690975,-1.81216931 23.4920635,-1.81216931 Z M22.473,3.187 L22.473,9.616 L16.044,9.616 L16.044,3.187 L22.473,3.187 Z" id="矩形"></path>
                    <path d="M27.8306878,31.0449735 C29.2113997,31.0449735 30.3306878,32.1642617 30.3306878,33.5449735 C30.3306878,34.8704569 29.2991519,35.9550122 27.9950635,36.0396559 L27.8306878,36.0449735 L10.6878307,36.0449735 C9.30711881,36.0449735 8.18783069,34.9256854 8.18783069,33.5449735 C8.18783069,32.2194901 9.21936662,31.1349349 10.523455,31.0502912 L10.6878307,31.0449735 L27.8306878,31.0449735 Z" id="路径"></path>
                    <path d="M11.5253816,10.4836975 C12.0957286,9.22629165 13.5774151,8.66932035 14.834821,9.23966733 C16.039835,9.78624986 16.6015679,11.1698091 16.144304,12.390845 L16.0788512,12.5491067 L8.67885119,28.8633924 C8.1085042,30.1207983 6.62681773,30.6777696 5.36941183,30.1074226 C4.16439785,29.5608401 3.60266494,28.1772808 4.05992882,26.956245 L4.12538162,26.7979833 L11.5253816,10.4836975 Z" id="路径"></path>
                    <path d="M23.6836975,9.23966733 C24.8887115,8.69308481 26.2997054,9.18183452 26.9171791,10.3302008 L26.9931369,10.4836975 L34.3931369,26.7979833 C34.9634839,28.0553892 34.4065126,29.5370756 33.1491067,30.1074226 C31.9440927,30.6540051 30.5330988,30.1652554 29.9156251,29.0168892 L29.8396673,28.8633924 L22.4396673,12.5491067 C21.8693203,11.2917008 22.4262916,9.81001432 23.6836975,9.23966733 Z" id="路径"></path>
                </g>
            </g>
        </g>
    </g>
</svg>