<?xml version="1.0" encoding="UTF-8"?>
<svg width="48px" height="48px" viewBox="0 0 48 48" version="1.1" xmlns="http://www.w3.org/2000/svg" xmlns:xlink="http://www.w3.org/1999/xlink">
    <title>编组 64</title>
    <g id="页面-1" stroke="none" stroke-width="1" fill="none" fill-rule="evenodd">
        <g id="编组-64">
            <rect id="矩形" stroke="#979797" fill="#D8D8D8" opacity="0" x="0.5" y="0.5" width="47" height="47"></rect>
            <g id="编组-2" transform="translate(4.000000, 4.000000)">
                <rect id="矩形" fill="#D8D8D8" opacity="0" x="0" y="0" width="40" height="40"></rect>
                <g id="编组备份" transform="translate(0.740741, 0.740741)" fill="#306AF2" fill-rule="nonzero">
                    <path d="M36.3492063,15.3306878 L25.026455,15.3306878 C22.8275435,15.3306878 21.0449735,17.1132578 21.0449735,19.3121693 L21.0449735,36.3492063 C21.0449735,38.5481179 22.8275435,40.3306878 25.026455,40.3306878 L36.3492063,40.3306878 C38.5481179,40.3306878 40.3306878,38.5481179 40.3306878,36.3492063 L40.3306878,19.3121693 C40.3306878,17.1132578 38.5481179,15.3306878 36.3492063,15.3306878 Z M35.33,20.33 L35.33,35.33 L26.044,35.33 L26.044,20.33 L35.33,20.33 Z" id="矩形"></path>
                    <path d="M36.3492063,-1.81216931 L25.026455,-1.81216931 C22.8275435,-1.81216931 21.0449735,-0.0295993346 21.0449735,2.16931217 L21.0449735,7.80634921 C21.0449735,10.0052607 22.8275435,11.7878307 25.026455,11.7878307 L36.3492063,11.7878307 C38.5481179,11.7878307 40.3306878,10.0052607 40.3306878,7.80634921 L40.3306878,2.16931217 C40.3306878,-0.0295993346 38.5481179,-1.81216931 36.3492063,-1.81216931 Z M35.33,3.187 L35.33,6.787 L26.044,6.787 L26.044,3.187 L35.33,3.187 Z" id="矩形"></path>
                    <path d="M13.4920635,-1.81216931 L2.16931217,-1.81216931 C-0.0295993346,-1.81216931 -1.81216931,-0.0295993346 -1.81216931,2.16931217 L-1.81216931,19.2063492 C-1.81216931,21.4052607 -0.0295993346,23.1878307 2.16931217,23.1878307 L13.4920635,23.1878307 C15.690975,23.1878307 17.473545,21.4052607 17.473545,19.2063492 L17.473545,2.16931217 C17.473545,-0.0295993346 15.690975,-1.81216931 13.4920635,-1.81216931 Z M12.473,3.187 L12.473,18.187 L3.187,18.187 L3.187,3.187 L12.473,3.187 Z" id="矩形"></path>
                    <path d="M13.4920635,26.7306878 L2.16931217,26.7306878 C-0.0295993346,26.7306878 -1.81216931,28.5132578 -1.81216931,30.7121693 L-1.81216931,36.3492063 C-1.81216931,38.5481179 -0.0295993346,40.3306878 2.16931217,40.3306878 L13.4920635,40.3306878 C15.690975,40.3306878 17.473545,38.5481179 17.473545,36.3492063 L17.473545,30.7121693 C17.473545,28.5132578 15.690975,26.7306878 13.4920635,26.7306878 Z M12.473,31.73 L12.473,35.33 L3.187,35.33 L3.187,31.73 L12.473,31.73 Z" id="矩形"></path>
                </g>
            </g>
        </g>
    </g>
</svg>