<?xml version="1.0" encoding="UTF-8"?>
<svg width="48px" height="48px" viewBox="0 0 48 48" version="1.1" xmlns="http://www.w3.org/2000/svg" xmlns:xlink="http://www.w3.org/1999/xlink">
    <title>编组 64</title>
    <g id="页面-1" stroke="none" stroke-width="1" fill="none" fill-rule="evenodd">
        <g id="画板" transform="translate(-258.000000, -176.000000)">
            <g id="编组-64" transform="translate(258.000000, 176.000000)">
                <rect id="矩形" stroke="#979797" fill="#D8D8D8" opacity="0" x="0.5" y="0.5" width="47" height="47"></rect>
                <g id="编组-2" transform="translate(2.000000, 2.000000)">
                    <rect id="矩形" fill="#D8D8D8" opacity="0" x="2" y="2" width="40" height="40"></rect>
                    <g id="编组备份" transform="translate(0.740741, 0.740741)" fill="#FFFFFF" fill-rule="nonzero">
                        <path d="M38.3492063,17.3306878 L27.026455,17.3306878 C24.8275435,17.3306878 23.0449735,19.1132578 23.0449735,21.3121693 L23.0449735,38.3492063 C23.0449735,40.5481179 24.8275435,42.3306878 27.026455,42.3306878 L38.3492063,42.3306878 C40.5481179,42.3306878 42.3306878,40.5481179 42.3306878,38.3492063 L42.3306878,21.3121693 C42.3306878,19.1132578 40.5481179,17.3306878 38.3492063,17.3306878 Z M37.33,22.33 L37.33,37.33 L28.044,37.33 L28.044,22.33 L37.33,22.33 Z" id="矩形"></path>
                        <path d="M38.3492063,0.187830688 L27.026455,0.187830688 C24.8275435,0.187830688 23.0449735,1.97040067 23.0449735,4.16931217 L23.0449735,9.80634921 C23.0449735,12.0052607 24.8275435,13.7878307 27.026455,13.7878307 L38.3492063,13.7878307 C40.5481179,13.7878307 42.3306878,12.0052607 42.3306878,9.80634921 L42.3306878,4.16931217 C42.3306878,1.97040067 40.5481179,0.187830688 38.3492063,0.187830688 Z M37.33,5.187 L37.33,8.787 L28.044,8.787 L28.044,5.187 L37.33,5.187 Z" id="矩形"></path>
                        <path d="M15.4920635,0.187830688 L4.16931217,0.187830688 C1.97040067,0.187830688 0.187830688,1.97040067 0.187830688,4.16931217 L0.187830688,21.2063492 C0.187830688,23.4052607 1.97040067,25.1878307 4.16931217,25.1878307 L15.4920635,25.1878307 C17.690975,25.1878307 19.473545,23.4052607 19.473545,21.2063492 L19.473545,4.16931217 C19.473545,1.97040067 17.690975,0.187830688 15.4920635,0.187830688 Z M14.473,5.187 L14.473,20.187 L5.187,20.187 L5.187,5.187 L14.473,5.187 Z" id="矩形"></path>
                        <path d="M15.4920635,28.7306878 L4.16931217,28.7306878 C1.97040067,28.7306878 0.187830688,30.5132578 0.187830688,32.7121693 L0.187830688,38.3492063 C0.187830688,40.5481179 1.97040067,42.3306878 4.16931217,42.3306878 L15.4920635,42.3306878 C17.690975,42.3306878 19.473545,40.5481179 19.473545,38.3492063 L19.473545,32.7121693 C19.473545,30.5132578 17.690975,28.7306878 15.4920635,28.7306878 Z M14.473,33.73 L14.473,37.33 L5.187,37.33 L5.187,33.73 L14.473,33.73 Z" id="矩形"></path>
                    </g>
                </g>
            </g>
        </g>
    </g>
</svg>