<?xml version="1.0" encoding="UTF-8"?>
<svg width="48px" height="48px" viewBox="0 0 48 48" version="1.1" xmlns="http://www.w3.org/2000/svg" xmlns:xlink="http://www.w3.org/1999/xlink">
    <title>编组 67</title>
    <g id="页面-1" stroke="none" stroke-width="1" fill="none" fill-rule="evenodd">
        <g id="画板" transform="translate(-554.000000, -176.000000)">
            <g id="编组-67" transform="translate(554.000000, 176.000000)">
                <rect id="矩形备份-76" stroke="#979797" fill="#D8D8D8" opacity="0" x="0.5" y="0.5" width="47" height="47"></rect>
                <g id="编组-4" transform="translate(2.000000, 3.000000)">
                    <rect id="矩形" fill="#D8D8D8" opacity="0" x="2" y="1" width="40" height="40"></rect>
                    <g id="编组" transform="translate(0.740741, 0.481481)" fill="#FFFFFF" fill-rule="nonzero">
                        <path d="M36.973545,0.161375661 C39.8582466,0.161375661 42.210414,2.44142553 42.3262194,5.29769748 L42.3306878,5.51851852 L42.3306878,14.0899471 C42.3306878,16.9746487 40.050638,19.3268161 37.194366,19.4426215 L36.973545,19.4470899 L5.54497354,19.4470899 C5.37238456,19.4470899 5.2283888,19.5695121 5.19508656,19.7322561 L5.18783069,19.8042328 L5.18783069,28.3756614 C5.18783069,28.5482504 5.31025283,28.6922461 5.4729968,28.7255484 L5.54497354,28.7328042 L39.8306878,28.7328042 C41.2113997,28.7328042 42.3306878,29.8520924 42.3306878,31.2328042 C42.3306878,32.5582876 41.2991519,33.6428429 39.9950635,33.7274866 L39.8306878,33.7328042 L5.54497354,33.7328042 C2.66027195,33.7328042 0.308104537,31.4527544 0.192299104,28.5964824 L0.187830688,28.3756614 L0.187830688,19.8042328 C0.187830688,16.9195312 2.46788056,14.5673638 5.32415251,14.4515584 L5.54497354,14.4470899 L36.973545,14.4470899 C37.146134,14.4470899 37.2901297,14.3246678 37.323432,14.1619238 L37.3306878,14.0899471 L37.3306878,5.51851852 C37.3306878,5.34592953 37.2082657,5.20193377 37.0455217,5.16863153 L36.973545,5.16137566 L2.68783069,5.16137566 C1.30711881,5.16137566 0.187830688,4.04208754 0.187830688,2.66137566 C0.187830688,1.33589226 1.21936662,0.251336989 2.523455,0.166693341 L2.68783069,0.161375661 L36.973545,0.161375661 Z" id="路径"></path>
                        <path d="M30.9200637,22.3221801 C31.8539262,21.3883177 33.342789,21.347715 34.3249124,22.200372 L34.4555976,22.3221801 L41.5984548,29.4650373 C42.5323172,30.3988997 42.5729199,31.8877626 41.7202629,32.8698859 L41.5984548,33.0005712 L34.4555976,40.1434283 C33.4792869,41.1197391 31.8963745,41.1197391 30.9200637,40.1434283 C29.9862013,39.2095659 29.9455986,37.720703 30.7982556,36.7385797 L30.9200637,36.6078944 L36.295,31.232 L30.9200637,25.857714 C29.9862013,24.9238516 29.9455986,23.4349887 30.7982556,22.4528654 L30.9200637,22.3221801 Z" id="路径"></path>
                    </g>
                </g>
            </g>
        </g>
    </g>
</svg>