<?xml version="1.0" encoding="UTF-8"?>
<svg width="48px" height="48px" viewBox="0 0 48 48" version="1.1" xmlns="http://www.w3.org/2000/svg" xmlns:xlink="http://www.w3.org/1999/xlink">
    <title>编组 67</title>
    <g id="页面-1" stroke="none" stroke-width="1" fill="none" fill-rule="evenodd">
        <g id="编组-67">
            <rect id="矩形备份-76" stroke="#979797" fill="#D8D8D8" opacity="0" x="0.5" y="0.5" width="47" height="47"></rect>
            <g id="编组-4" transform="translate(4.000000, 4.000000)">
                <rect id="矩形" fill="#D8D8D8" opacity="0" x="0" y="0" width="40" height="40"></rect>
                <g id="编组" transform="translate(0.740741, 1.481481)" fill="#306AF2" fill-rule="nonzero">
                    <path d="M34.973545,-1.83862434 C37.8582466,-1.83862434 40.210414,0.441425535 40.3262194,3.29769748 L40.3306878,3.51851852 L40.3306878,12.0899471 C40.3306878,14.9746487 38.050638,17.3268161 35.194366,17.4426215 L34.973545,17.4470899 L3.54497354,17.4470899 C3.37238456,17.4470899 3.2283888,17.5695121 3.19508656,17.7322561 L3.18783069,17.8042328 L3.18783069,26.3756614 C3.18783069,26.5482504 3.31025283,26.6922461 3.4729968,26.7255484 L3.54497354,26.7328042 L37.8306878,26.7328042 C39.2113997,26.7328042 40.3306878,27.8520924 40.3306878,29.2328042 C40.3306878,30.5582876 39.2991519,31.6428429 37.9950635,31.7274866 L37.8306878,31.7328042 L3.54497354,31.7328042 C0.66027195,31.7328042 -1.69189546,29.4527544 -1.8077009,26.5964824 L-1.81216931,26.3756614 L-1.81216931,17.8042328 C-1.81216931,14.9195312 0.467880561,12.5673638 3.32415251,12.4515584 L3.54497354,12.4470899 L34.973545,12.4470899 C35.146134,12.4470899 35.2901297,12.3246678 35.323432,12.1619238 L35.3306878,12.0899471 L35.3306878,3.51851852 C35.3306878,3.34592953 35.2082657,3.20193377 35.0455217,3.16863153 L34.973545,3.16137566 L0.687830688,3.16137566 C-0.692881187,3.16137566 -1.81216931,2.04208754 -1.81216931,0.661375661 C-1.81216931,-0.664107738 -0.780633376,-1.74866301 0.523455,-1.83330666 L0.687830688,-1.83862434 L34.973545,-1.83862434 Z" id="路径"></path>
                    <path d="M28.9200637,20.3221801 C29.8539262,19.3883177 31.342789,19.347715 32.3249124,20.200372 L32.4555976,20.3221801 L39.5984548,27.4650373 C40.5323172,28.3988997 40.5729199,29.8877626 39.7202629,30.8698859 L39.5984548,31.0005712 L32.4555976,38.1434283 C31.4792869,39.1197391 29.8963745,39.1197391 28.9200637,38.1434283 C27.9862013,37.2095659 27.9455986,35.720703 28.7982556,34.7385797 L28.9200637,34.6078944 L34.295,29.232 L28.9200637,23.857714 C27.9862013,22.9238516 27.9455986,21.4349887 28.7982556,20.4528654 L28.9200637,20.3221801 Z" id="路径"></path>
                </g>
            </g>
        </g>
    </g>
</svg>