<?xml version="1.0" encoding="UTF-8"?>
<svg width="40px" height="40px" viewBox="0 0 40 40" version="1.1" xmlns="http://www.w3.org/2000/svg" xmlns:xlink="http://www.w3.org/1999/xlink">
    <title>编组 69</title>
    <defs>
        <linearGradient x1="100%" y1="50%" x2="0%" y2="50%" id="linearGradient-1">
            <stop stop-color="#54DFFF" offset="0%"></stop>
            <stop stop-color="#2E64FF" offset="100%"></stop>
        </linearGradient>
    </defs>
    <g id="页面-1" stroke="none" stroke-width="1" fill="none" fill-rule="evenodd">
        <g id="画板" transform="translate(-481.000000, -135.000000)">
            <g id="编组-69" transform="translate(481.000000, 135.000000)">
                <rect id="矩形备份-77" stroke="#979797" fill="#D8D8D8" opacity="0" x="0.5" y="0.5" width="39" height="39"></rect>
                <g id="编组-59备份-3" transform="translate(20.000000, 20.000000) scale(-1, 1) translate(-20.000000, -20.000000) translate(2.000000, 2.000000)">
                    <rect id="矩形" fill="#D8D8D8" opacity="0" x="0" y="0" width="36" height="36"></rect>
                    <circle id="椭圆形" fill="url(#linearGradient-1)" cx="18" cy="18" r="18"></circle>
                    <path d="M16.2928932,11.2928932 C16.6834175,10.9023689 17.3165825,10.9023689 17.7071068,11.2928932 C18.0675907,11.6533772 18.0953203,12.2206082 17.7902954,12.6128994 L17.7071068,12.7071068 L12.415,18 L17.7071068,23.2928932 C18.0675907,23.6533772 18.0953203,24.2206082 17.7902954,24.6128994 L17.7071068,24.7071068 C17.3466228,25.0675907 16.7793918,25.0953203 16.3871006,24.7902954 L16.2928932,24.7071068 L10.2928932,18.7071068 C9.93240926,18.3466228 9.90467972,17.7793918 10.2097046,17.3871006 L10.2928932,17.2928932 L16.2928932,11.2928932 Z" id="路径" fill="#FFFFFF" fill-rule="nonzero"></path>
                    <rect id="矩形" fill="#FFFFFF" x="12" y="17" width="14" height="2" rx="1"></rect>
                </g>
            </g>
        </g>
    </g>
</svg>