<?xml version="1.0" encoding="UTF-8"?>
<svg width="18px" height="18px" viewBox="0 0 18 18" version="1.1" xmlns="http://www.w3.org/2000/svg" xmlns:xlink="http://www.w3.org/1999/xlink">
    <title>icon/标题</title>
    <g id="页面-1" stroke="none" stroke-width="1" fill="none" fill-rule="evenodd">
        <g id="头卡配置--banner备份-2" transform="translate(-174.000000, -98.000000)" fill="#004CFF">
            <g id="icon/标题" transform="translate(174.000000, 98.000000)">
                <rect id="矩形" fill-opacity="0.109377561" x="0" y="0" width="18" height="18" rx="3"></rect>
                <g id="标题" transform="translate(1.000000, 1.000000)" fill-rule="nonzero">
                    <rect id="矩形" opacity="0" x="0" y="0" width="16" height="16"></rect>
                    <path d="M12.98,10.152 L3.236,10.236 C3.0150861,10.236 2.836,10.4150861 2.836,10.636 C2.836,10.8569139 3.0150861,11.036 3.236,11.036 L12.976,10.952 C13.1969139,10.952 13.376,10.7729139 13.376,10.552 C13.376,10.3310861 13.1969139,10.152 12.976,10.152 L12.98,10.152 Z M12.98,8 L3.236,8.084 C3.0150861,8.084 2.836,8.2630861 2.836,8.484 C2.836,8.7049139 3.0150861,8.884 3.236,8.884 L12.984,8.8 C13.2049139,8.8 13.384,8.6209139 13.384,8.4 C13.384,8.1790861 13.2049139,8 12.984,8 L12.98,8 Z M8.316,12.4 L3.24,12.4 C3.0190861,12.4 2.84,12.5790861 2.84,12.8 C2.84,13.0209139 3.0190861,13.2 3.24,13.2 L8.316,13.2 C8.5369139,13.2 8.716,13.0209139 8.716,12.8 C8.716,12.5790861 8.5369139,12.4 8.316,12.4 L8.316,12.4 Z M3.088,3.38 L3.888,3.38 L3.888,6.112 C3.88679692,6.19609599 3.9200361,6.27702616 3.98,6.336 C4.04488012,6.39688891 4.13104378,6.42991831 4.22,6.428 C4.31134608,6.429915 4.40000305,6.39702613 4.468,6.336 C4.53067897,6.27858132 4.56564784,6.19698731 4.564,6.112 L4.564,3.38 L5.4,3.38 C5.48329077,3.3825283 5.5645495,3.35401647 5.628,3.3 C5.68780919,3.2445403 5.72002462,3.16546607 5.716,3.084 C5.72012051,3.00134797 5.68798522,2.92100973 5.628,2.864 C5.56298049,2.81429546 5.48138786,2.79139227 5.4,2.8 L3.088,2.8 C3.00391196,2.79693474 2.92200027,2.82711273 2.86,2.884 C2.79961535,2.93936111 2.76607804,3.01810089 2.768,3.1 C2.76452228,3.18137196 2.79664777,3.26022543 2.856,3.316 C2.92224806,3.36632878 3.0053179,3.3892446 3.088,3.38 L3.088,3.38 Z M6.488,3.64 C6.40372336,3.63783074 6.32242325,3.67122186 6.264,3.732 C6.20447922,3.79261214 6.17263549,3.87511635 6.176,3.96 L6.176,6.112 C6.17327057,6.195593 6.20510177,6.27661787 6.264,6.336 C6.38842992,6.45796572 6.58757008,6.45796572 6.712,6.336 C6.77089823,6.27661787 6.80272943,6.195593 6.8,6.112 L6.8,3.96 C6.80336451,3.87511635 6.77152078,3.79261214 6.712,3.732 C6.65357675,3.67122186 6.57227664,3.63783074 6.488,3.64 L6.488,3.64 Z M6.484,3.304 C6.57300749,3.31126586 6.66215546,3.29176474 6.74,3.248 C6.79249533,3.19246948 6.81485432,3.11495831 6.8,3.04 L6.8,2.944 C6.80848653,2.86856439 6.78195679,2.7933968 6.728,2.74 C6.65137549,2.69311755 6.56120059,2.67339179 6.472,2.684 C6.38423846,2.67628582 6.29623445,2.69584226 6.22,2.74 C6.16294341,2.79155666 6.13458408,2.86767907 6.144,2.944 L6.144,3.04 C6.13425413,3.11557416 6.1609759,3.19128583 6.216,3.244 C6.29545278,3.2950018 6.39038518,3.31625532 6.484,3.304 L6.484,3.304 Z M7.472,4.268 L7.712,4.268 L7.712,5.704 C7.712,6.004 7.784,6.2 7.932,6.292 C8.09831196,6.38779299 8.28819774,6.43491793 8.48,6.428 C8.60148222,6.42951306 8.72085614,6.3961994 8.824,6.332 C8.9148392,6.28731831 8.97448615,6.19708319 8.98,6.096 C8.9827642,6.02822287 8.96151599,5.96164516 8.92,5.908 C8.89005964,5.87094888 8.84717048,5.84664502 8.8,5.84 C8.75891454,5.84101341 8.71831481,5.84913335 8.68,5.864 C8.64411144,5.87767293 8.60633993,5.88576683 8.568,5.888 C8.51134209,5.89067465 8.45572154,5.87213446 8.412,5.836 C8.36871352,5.79623832 8.34651425,5.73852022 8.352,5.68 L8.352,4.268 L8.724,4.268 C8.80200983,4.27021023 8.87740251,4.23976319 8.932,4.184 C8.98736119,4.1324472 9.01794757,4.05962248 9.016,3.984 C9.01708788,3.90622839 8.98667314,3.83132329 8.93167492,3.77632508 C8.87667671,3.72132686 8.80177161,3.69091212 8.724,3.692 L8.352,3.692 L8.352,3.36 C8.35536451,3.27511635 8.32352078,3.19261214 8.264,3.132 C8.20776004,3.07286976 8.12960357,3.0395809 8.048,3.03997432 C7.9628026,3.03891455 7.88077716,3.07228007 7.82052861,3.13252861 C7.76028007,3.19277716 7.72691455,3.2748026 7.728,3.36 L7.728,3.692 L7.488,3.692 C7.41081698,3.69012003 7.33603072,3.71888398 7.28,3.772 C7.22485827,3.82536588 7.19442327,3.89927946 7.196,3.976 C7.19473793,4.05383654 7.22503941,4.12886877 7.28,4.184 C7.33071341,4.23579831 7.39953935,4.26590966 7.472,4.268 L7.472,4.268 Z M9.932,6.42803156 C10.016096,6.42920308 10.0970262,6.3959639 10.156,6.336 C10.2176412,6.27816781 10.2511986,6.19646285 10.248,6.112 L10.248,2.912 C10.2513645,2.82711635 10.2195208,2.74461214 10.16,2.684 C10.1025282,2.62425336 10.0228949,2.59095217 9.94,2.591976 C9.85549392,2.591976 9.7745059,2.62583452 9.71512807,2.68596397 C9.65575023,2.74609342 9.6229303,2.82750069 9.624,2.912 L9.624,6.112 C9.62127057,6.195593 9.65310177,6.27661787 9.712,6.336 C9.76947179,6.39574664 9.84910507,6.42904783 9.932,6.42803156 L9.932,6.42803156 Z M11.448,6.3 C11.6832256,6.4239677 11.9461729,6.48591864 12.212,6.48 C12.3806263,6.48103118 12.5482489,6.45399528 12.708,6.4 C12.8522805,6.35602224 12.9876838,6.28696656 13.108,6.196 C13.1930436,6.13939893 13.246412,6.04600429 13.252,5.944 C13.253476,5.87474417 13.2259191,5.80802745 13.176,5.76 C13.1264659,5.70986906 13.0584563,5.68237582 12.988,5.684 C12.9253831,5.68437543 12.8637289,5.69944645 12.808,5.728 L12.712,5.788 C12.654278,5.82596368 12.5907898,5.85433075 12.524,5.872 C12.4161603,5.90288219 12.3040888,5.91638479 12.192,5.912 C12.0074337,5.91369219 11.82796,5.85151231 11.684,5.736 C11.5331204,5.61672344 11.4319114,5.44566607 11.4,5.256 L13.116,5.256 C13.196491,5.25621532 13.2744481,5.22786729 13.336,5.176 C13.3983845,5.1265541 13.4351273,5.05159876 13.436,4.972 C13.4376494,4.73029331 13.3740843,4.49261512 13.252,4.284 C13.1357593,4.07654814 12.9675952,3.90287044 12.764,3.78 C12.567273,3.65798053 12.3394513,3.59546849 12.108,3.6 C11.877074,3.59953419 11.6503502,3.66174499 11.452,3.78 C11.242785,3.90541574 11.0713972,4.08509651 10.956,4.3 C10.826139,4.54612761 10.7627184,4.82186959 10.772,5.1 C10.7670628,5.35249339 10.8277042,5.60194998 10.948,5.824 C11.0682483,6.02520798 11.2411249,6.18978658 11.448,6.3 L11.448,6.3 Z M12.108,4.164 C12.2683655,4.16313036 12.423997,4.2183088 12.548,4.32 C12.6680291,4.40849764 12.7450375,4.54362567 12.76,4.692 L12.76,4.728 L11.396,4.728 C11.4377641,4.37614162 11.7559235,4.12411651 12.108,4.164 L12.108,4.164 Z" id="形状"></path>
                </g>
            </g>
        </g>
    </g>
</svg>